<!--?xml version="1.0" standalone="no"?-->
              <svg id="sw-js-blob-svg" viewBox="0 0 100 100" xmlns="http://www.w3.org/2000/svg" version="1.1">
                    <defs> 
                        <linearGradient id="sw-gradient" x1="0" x2="1" y1="1" y2="0">
                            <stop id="stop1" stop-color="rgba(248, 117, 55, 1)" offset="0%"></stop>
                            <stop id="stop2" stop-color="rgba(251, 168, 31, 1)" offset="100%"></stop>
                        </linearGradient>
                    </defs>
                <path fill="url(#sw-gradient)" d="M26.2,-31C31.3,-27,30.8,-16.2,31.9,-6.1C33.1,3.9,35.9,13.1,32.8,19.2C29.6,25.3,20.5,28.3,11.8,30.7C3.1,33.1,-5.2,35,-12.5,33C-19.9,30.9,-26.4,25,-30.8,17.7C-35.2,10.4,-37.4,1.7,-35.9,-6.2C-34.4,-14.2,-29.1,-21.3,-22.5,-25C-15.9,-28.7,-8,-29,1.3,-30.6C10.6,-32.1,21.2,-35,26.2,-31Z" width="100%" height="100%" transform="translate(50 50)" style="transition: all 0.3s ease 0s;" stroke-width="0"></path>
              </svg>